<svg viewBox="0 0 18 18" xmlns="http://www.w3.org/2000/svg">
  <defs>
    <g id="inside">
      <path d="M12 8 L12 12 L8 12 Z" fill="#9A3B3B"/>
      <path d="M12 8 L12 9 L11 9 L11 10 L10 10 L10 11 L9 11 L9 12 L8 12 L8 8 Z" fill="#7F2E2E"/>
      <path d="M0 0 L12 0 L12 8 L11 8 L11 9 L10 9 L10 10 L9 10 L9 11 L8 11 L8 12 L4 12 L4 16 L0 16 Z" fill="#FFB000"/>
      <path d="M4 4 L8 4 L8 8 L4 8 Z" fill="#9A3B3B"/>
      <path d="M4 4 L8 4 L8 5 L5 5 L5 8 L4 8 Z" fill="#7F2E2E"/>
      <path d="M4 12 L8 12 L8 16 L4 16 Z" fill="#9A3B3B"/>
      <path d="M4 12 L8 12 L8 13 L5 13 L5 16 L4 16 Z" fill="#7F2E2E"/>
      <path d="M12 12 L16 12 L16 16 L12 16 Z" fill="#9A3B3B"/>
      <path d="M12 4 L16 4 L16 8 L12 8 Z" fill="#9A3B3B"/>
      <path d="M12 4 L13 4 L13 8 L12 8 Z" fill="#7F2E2E"/>
    </g>
  </defs>
  <use href="#inside" x="1" y="1"/>
</svg>

